<svg xmlns="http://www.w3.org/2000/svg" viewBox="0 0 200 320">
  <defs>
    <linearGradient id="bodyB" x1="0" y1="0" x2="1" y2="0">
      <stop offset="0%" stop-color="#6b4a1f"/>
      <stop offset="40%" stop-color="#b8863d"/>
      <stop offset="60%" stop-color="#d4a857"/>
      <stop offset="100%" stop-color="#5a3d18"/>
    </linearGradient>
  </defs>
  <!-- Handle -->
  <rect x="72" y="22" width="56" height="12" rx="3" fill="#3a2a14"/>
  <!-- Neck -->
  <rect x="86" y="34" width="28" height="28" fill="#5a3d18"/>
  <circle cx="100" cy="38" r="10" fill="#b8863d"/>
  <!-- Body (rounded vintage shape) -->
  <path d="M100 62 q-58 0 -58 60 v110 q0 38 58 38 q58 0 58 -38 v-110 q0 -60 -58 -60 z" fill="url(#bodyB)"/>
  <!-- Bands -->
  <rect x="44" y="130" width="112" height="6" fill="#3a2a14"/>
  <rect x="44" y="200" width="112" height="6" fill="#3a2a14"/>
  <!-- Plaque -->
  <rect x="68" y="148" width="64" height="46" rx="3" fill="#e8d39a" stroke="#3a2a14" stroke-width="2"/>
  <text x="100" y="172" font-family="Georgia, serif" font-size="11" font-weight="700" fill="#3a2a14" text-anchor="middle">FEUER</text>
  <text x="100" y="186" font-family="Georgia, serif" font-size="11" font-weight="700" fill="#3a2a14" text-anchor="middle">LÖSCHER</text>
  <!-- Highlight -->
  <ellipse cx="68" cy="140" rx="8" ry="80" fill="#fff" opacity="0.18"/>
  <!-- Base -->
  <ellipse cx="100" cy="272" rx="58" ry="10" fill="#3a2a14"/>
</svg>
