<svg xmlns="http://www.w3.org/2000/svg" viewBox="0 0 200 320">
  <defs>
    <linearGradient id="bodyM" x1="0" y1="0" x2="1" y2="0">
      <stop offset="0%" stop-color="#2c2c2c"/>
      <stop offset="40%" stop-color="#5e6266"/>
      <stop offset="60%" stop-color="#7a7e82"/>
      <stop offset="100%" stop-color="#1a1a1a"/>
    </linearGradient>
    <linearGradient id="accent" x1="0" y1="0" x2="0" y2="1">
      <stop offset="0%" stop-color="#ff5a3c"/>
      <stop offset="100%" stop-color="#c4321a"/>
    </linearGradient>
  </defs>
  <!-- Sleek handle -->
  <rect x="64" y="18" width="72" height="10" rx="4" fill="#1a1a1a"/>
  <rect x="74" y="28" width="52" height="6" fill="url(#accent)"/>
  <!-- Neck -->
  <rect x="88" y="34" width="24" height="24" fill="#1a1a1a"/>
  <!-- Hose -->
  <path d="M112 50 q26 14 26 60" fill="none" stroke="#1a1a1a" stroke-width="5" stroke-linecap="round"/>
  <circle cx="138" cy="112" r="6" fill="#ff5a3c"/>
  <!-- Body -->
  <rect x="52" y="58" width="96" height="210" rx="20" fill="url(#bodyM)"/>
  <!-- Top accent stripe -->
  <rect x="52" y="84" width="96" height="6" fill="url(#accent)"/>
  <!-- Display panel -->
  <rect x="68" y="120" width="64" height="80" rx="6" fill="#0e0e0e"/>
  <rect x="76" y="132" width="48" height="4" rx="2" fill="#ff5a3c"/>
  <rect x="76" y="142" width="36" height="3" rx="1.5" fill="#5a5a5a"/>
  <text x="100" y="172" font-family="Inter, Arial, sans-serif" font-size="11" font-weight="700" fill="#ff5a3c" text-anchor="middle">CO₂</text>
  <text x="100" y="188" font-family="Inter, Arial, sans-serif" font-size="7" fill="#bbb" text-anchor="middle">5kg · CLASS BC</text>
  <!-- Bottom accent stripe -->
  <rect x="52" y="234" width="96" height="6" fill="url(#accent)"/>
  <!-- Highlight -->
  <rect x="60" y="68" width="8" height="190" rx="4" fill="#fff" opacity="0.12"/>
  <!-- Base -->
  <rect x="46" y="264" width="108" height="14" rx="4" fill="#0e0e0e"/>
</svg>
